<svg width="2042" height="1602" viewBox="0 0 2042 1602" fill="none" xmlns="http://www.w3.org/2000/svg">
    <g id="Group 1">

        <g id="developer 1">
            <path id="Rectangle 62" d="M1681 408.172H1134.07V653.462H1681V408.172Z" fill="#E6E6E6" />
            <path id="Rectangle 75" d="M1665.36 429.206H1149.71V633.859H1665.36V429.206Z" fill="white" />
            <path id="Rectangle 80" d="M1680.44 394H1133.51V415.96H1680.44V394Z" fill="#4682B4" />
            <path id="Ellipse 90" d="M1151.1 410.984C1153.48 410.984 1155.41 409.161 1155.41 406.913C1155.41 404.665 1153.48 402.843 1151.1 402.843C1148.72 402.843 1146.8 404.665 1146.8 406.913C1146.8 409.161 1148.72 410.984 1151.1 410.984Z" fill="white" />
            <path id="Ellipse 91" d="M1167.45 410.984C1169.83 410.984 1171.75 409.161 1171.75 406.913C1171.75 404.665 1169.83 402.843 1167.45 402.843C1165.07 402.843 1163.14 404.665 1163.14 406.913C1163.14 409.161 1165.07 410.984 1167.45 410.984Z" fill="white" />
            <path id="Ellipse 92" d="M1183.8 410.984C1186.17 410.984 1188.1 409.161 1188.1 406.913C1188.1 404.665 1186.17 402.843 1183.8 402.843C1181.42 402.843 1179.49 404.665 1179.49 406.913C1179.49 409.161 1181.42 410.984 1183.8 410.984Z" fill="white" />
            <path id="Vector" d="M1543.96 462.322H1458.23V600.745H1543.96V462.322Z" fill="#F2F2F2" />
            <g id="elements">
                <path class="element" d="M1444.03 462.319H1271.1V500.422H1444.03V462.319Z" fill="#4682B4" />
                <path class="element" d="M1444.03 511.033H1271.1V552.029H1444.03V511.033Z" fill="#F2F2F2" />
                <path class="element" d="M1444.03 562.64H1271.1V600.743H1444.03V562.64Z" fill="#F2F2F2" />
            </g>
            <path id="Vector_5" d="M1029.94 803.29C1029.96 800.484 1029.35 797.706 1028.15 795.139C1026.95 792.572 1025.19 790.272 1022.99 788.392C1020.78 786.512 1018.18 785.093 1015.36 784.228C1012.53 783.364 1009.55 783.073 1006.6 783.375C1005.66 783.475 1004.74 783.636 1003.83 783.858L932.5 726.074L936.762 704.36L901.607 693.592L891.007 728.39C889.754 732.566 889.958 737.013 891.59 741.071C893.222 745.129 896.195 748.581 900.067 750.916L987.811 803.367C987.811 804.02 987.847 804.672 987.919 805.32C988.239 808.111 989.18 810.805 990.679 813.228C992.178 815.65 994.202 817.746 996.617 819.378C999.033 821.01 1001.79 822.141 1004.7 822.697C1007.61 823.252 1010.61 823.221 1013.51 822.604C1014.35 822.428 1015.18 822.201 1015.99 821.926C1020.05 820.539 1023.56 818.009 1026.06 814.677C1028.55 811.345 1029.91 807.372 1029.94 803.29V803.29Z" fill="#9F616A" />
            <path id="Vector_6" d="M852.615 870.306H944.578C944.578 872.804 1039.36 874.832 1039.36 874.832C1040.84 875.891 1042.2 877.105 1043.4 878.453C1047 882.511 1048.97 887.64 1048.95 892.936V896.557C1048.95 902.558 1046.43 908.313 1041.94 912.556C1037.45 916.8 1031.36 919.185 1025.01 919.187H852.615C846.267 919.182 840.18 916.796 835.691 912.553C831.201 908.31 828.677 902.557 828.672 896.557V892.936C828.68 886.937 831.206 881.186 835.694 876.943C840.183 872.701 846.268 870.314 852.615 870.306V870.306Z" fill="#3F3D56" />
            <path id="Vector_7" d="M952.65 918.288H927.748V1070.36H952.65V918.288Z" fill="#3F3D56" />
            <path id="Vector_8" d="M1023.52 1072.25C1023.52 1075.1 985.789 1073.36 939.241 1073.36C892.693 1073.36 854.959 1075.1 854.959 1072.25C854.959 1069.41 892.693 1046.83 939.241 1046.83C985.789 1046.83 1023.52 1069.41 1023.52 1072.25Z" fill="#3F3D56" />
            <path id="Vector_9" d="M1001.04 1051.71L1024.53 1051.71L1035.7 994.144L1001.04 994.146L1001.04 1051.71Z" fill="#9F616A" />
            <path id="Vector_10" d="M995.054 1073.23L1070.78 1073.22V1072.32C1070.78 1068.66 1070.01 1065.04 1068.53 1061.66C1067.05 1058.28 1064.88 1055.21 1062.14 1052.62C1059.41 1050.03 1056.16 1047.98 1052.58 1046.58C1049.01 1045.18 1045.17 1044.46 1041.3 1044.46H1041.3L995.053 1044.46L995.054 1073.23Z" fill="#2F2E41" />
            <path id="Vector_11" d="M985.72 1051.71L1009.2 1051.71L1020.38 994.144L985.716 994.146L985.72 1051.71Z" fill="#9F616A" />
            <path id="Vector_12" d="M979.73 1073.23L1055.45 1073.22V1072.32C1055.45 1068.66 1054.69 1065.04 1053.21 1061.66C1051.73 1058.28 1049.56 1055.21 1046.82 1052.62C1044.08 1050.03 1040.83 1047.98 1037.26 1046.58C1033.68 1045.18 1029.85 1044.46 1025.98 1044.46H1025.98L979.729 1044.46L979.73 1073.23Z" fill="#2F2E41" />
            <g id="Legs">
                <path class="leg" d="M1036.17 1016.01L1082.98 916.79C1086.89 908.427 1087.32 898.979 1084.19 890.328C1081.06 881.677 1074.6 874.459 1066.09 870.11L964.544 818.644L918.206 814.919L875.462 811.247L875.154 811.74C874.76 812.369 865.57 827.372 871.782 843.823C876.494 856.302 888.751 866.049 908.213 872.793C953.637 888.535 1006.11 901.99 1026.56 907.043C1027.47 907.261 1028.31 907.658 1029.04 908.207C1029.77 908.756 1030.37 909.445 1030.8 910.229C1031.23 911.003 1031.48 911.853 1031.55 912.725C1031.61 913.597 1031.49 914.472 1031.18 915.296L987.682 1007.65C987.227 1008.82 987.064 1010.08 987.204 1011.32C987.343 1012.56 987.783 1013.75 988.488 1014.81C989.193 1015.86 990.145 1016.75 991.27 1017.4C992.395 1018.05 993.664 1018.45 994.978 1018.57L1027.48 1020.81C1027.75 1020.83 1028.03 1020.84 1028.3 1020.84C1029.97 1020.84 1031.59 1020.39 1032.99 1019.53C1034.39 1018.67 1035.49 1017.45 1036.17 1016.01V1016.01Z" fill="#CBCBCB" />
                <path class="leg" d="M1018.93 1021.45L1065.74 922.221C1069.65 913.858 1070.09 904.41 1066.95 895.759C1063.82 887.109 1057.36 879.89 1048.85 875.541L947.305 824.075L900.967 820.35L867.488 817.605L867.492 817.171C867.098 817.8 857.908 832.804 864.12 849.255C868.832 861.733 871.512 871.48 890.973 878.225C936.398 893.967 988.873 907.421 1009.32 912.474C1010.23 912.692 1011.07 913.089 1011.8 913.638C1012.53 914.188 1013.13 914.876 1013.56 915.66C1013.99 916.434 1014.24 917.284 1014.31 918.156C1014.37 919.028 1014.25 919.904 1013.94 920.727L970.442 1013.08C969.988 1014.26 969.824 1015.51 969.964 1016.75C970.104 1017.99 970.543 1019.18 971.248 1020.24C971.953 1021.29 972.905 1022.18 974.03 1022.83C975.156 1023.49 976.425 1023.88 977.739 1024L1010.24 1026.24C1010.51 1026.26 1010.79 1026.27 1011.06 1026.27C1012.73 1026.27 1014.36 1025.82 1015.75 1024.96C1017.15 1024.1 1018.25 1022.88 1018.93 1021.45Z" fill="#CBCBCB" />
            </g>
            <path id="Vector_15" d="M930.699 819.416C932.944 817.915 965.178 833.899 970.925 821.226C944.108 757.862 962.588 730.5 946.161 694.163C943.267 687.896 938.909 682.33 933.412 677.884C927.916 673.438 921.425 670.227 914.427 668.492L871.808 666.459L871.587 666.56C861.97 671.012 854.127 678.275 849.221 687.271C844.314 696.268 842.606 706.52 844.35 716.506C844.502 756.051 869.536 786.212 860.782 814.895C860.415 816.094 860.308 817.351 860.468 818.59C860.627 819.829 861.049 821.025 861.709 822.107C862.349 823.152 863.209 824.062 864.236 824.781C865.262 825.499 866.433 826.012 867.677 826.287L923.952 819.192C925.267 819.488 926.633 819.515 927.959 819.272C929.286 819.03 930.543 818.522 931.646 817.785L930.699 819.416Z" fill="#2F2E41" />
            <g id="Head">
                <path class="heads" d="M886.031 651.414C912.014 651.414 933.078 631.506 933.078 606.949C933.078 582.391 912.014 562.483 886.031 562.483C860.048 562.483 838.984 582.391 838.984 606.949C838.984 631.506 860.048 651.414 886.031 651.414Z" fill="#9F616A" />
                <path class="heads" d="M871.046 647.762C873.545 648.796 878.664 629.971 876.371 626.206C872.961 620.606 873.163 620.646 870.899 616.942C868.635 613.237 868.129 608.166 871.06 604.907C873.992 601.647 880.776 602.08 882.114 606.167C881.253 598.404 889.377 592.164 897.424 590.41C905.471 588.657 913.959 589.745 922.051 588.185C931.442 586.374 941.212 578.934 937.465 569.174C936.822 567.55 935.86 566.054 934.628 564.768C930.3 560.168 924.244 558.203 918.324 556.304C906.007 552.353 893.353 548.352 880.354 548.788C858.996 549.505 838.808 563.459 831.612 582.479C830.716 584.852 830.022 587.289 829.537 589.766C825.075 612.44 839.006 634.805 861.633 643.44L871.046 647.762Z" fill="#2F2E41" />
            </g>
            <path id="Vector_18" d="M1117.77 719.266L1123.16 749.543C1123.22 749.881 1123.18 750.228 1123.05 750.545L1080.72 850.502C1080.55 850.898 1080.25 851.227 1079.85 851.436C1079.46 851.644 1079 851.719 1078.56 851.647C1078.11 851.575 1077.71 851.361 1077.41 851.041C1077.11 850.721 1076.94 850.314 1076.92 849.888L1075.13 809.72C1075.12 809.453 1075.17 809.187 1075.27 808.94L1114 718.874C1114.16 718.498 1114.44 718.183 1114.81 717.975C1115.18 717.767 1115.61 717.679 1116.04 717.723C1116.46 717.768 1116.86 717.942 1117.18 718.221C1117.49 718.499 1117.7 718.866 1117.77 719.266V719.266Z" fill="#3F3D56" />
            <path id="Vector_19" d="M1114.77 721.591L1119.9 747.602L1082.34 838.815L1077.46 809.473L1114.77 721.591Z" fill="#4682B4" />
            <path id="Vector_20" d="M950.434 850.037C951.358 853.447 1072.69 857.138 1073.95 856.106C1075.08 854.785 1076.06 853.354 1076.87 851.839C1078.14 849.692 1079.32 847.54 1079.32 847.54L1077.32 811.272L957.801 799.2C957.801 799.2 952.513 829.465 950.853 843.37C950.478 845.573 950.338 847.807 950.434 850.037Z" fill="#3F3D56" />
            <path id="Vector_21" opacity="0.1" d="M1061.69 815.109L1061.7 846.355L1008.83 842.803L1011.17 811.714L1061.69 815.109Z" fill="black" />
            <path id="Vector_22" opacity="0.1" d="M992.799 820.522L993.118 820.484L990.622 833.768L961.253 831.794L962.255 818.47L992.799 820.522Z" fill="black" />
            <path id="Vector_23" opacity="0.1" d="M950.434 850.037C951.358 853.447 1072.69 857.138 1073.95 856.106C1075.08 854.785 1076.06 853.354 1076.87 851.839L950.853 843.37C950.478 845.573 950.338 847.807 950.434 850.037Z" fill="black" />
            <g id="right hand">
                <path class="hands" d="M901.714 795.878L1004.06 813.931C1004.32 814.537 1004.61 815.13 1004.93 815.707C1006.32 818.18 1008.25 820.349 1010.58 822.072C1012.92 823.796 1015.61 825.036 1018.49 825.711C1021.37 826.397 1024.38 826.493 1027.31 825.991C1030.24 825.49 1033.02 824.403 1035.47 822.803C1039.91 819.924 1043.01 815.552 1044.14 810.581C1045.28 805.61 1044.36 800.417 1041.57 796.067C1038.78 791.717 1034.34 788.539 1029.16 787.185C1023.97 785.831 1018.43 786.403 1013.68 788.784C1012.85 789.204 1012.05 789.678 1011.29 790.202L922.395 761.5L917.845 739.838L880.97 742.144L884.791 778.457C885.255 782.694 887.151 786.678 890.2 789.816C893.248 792.954 897.286 795.08 901.714 795.878V795.878Z" fill="#9F616A" />
                <path class="hands" d="M879.721 758.341L933.303 741.696L920.804 707.777C919.144 703.273 915.853 699.468 911.513 697.036C907.173 694.603 902.062 693.699 897.085 694.483V694.483C892.049 695.276 887.48 697.745 884.202 701.443C880.924 705.142 879.154 709.826 879.21 714.65L879.721 758.341Z" fill="#2F2E41" />
            </g>
            <path id="Vector_26" d="M1219.62 1075H770.18C769.867 1075 769.567 1074.88 769.346 1074.67C769.124 1074.46 769 1074.18 769 1073.89C769 1073.59 769.124 1073.31 769.346 1073.1C769.567 1072.89 769.867 1072.77 770.18 1072.77H1219.62C1219.94 1072.77 1220.24 1072.89 1220.46 1073.1C1220.68 1073.31 1220.8 1073.59 1220.8 1073.89C1220.8 1074.18 1220.68 1074.46 1220.46 1074.67C1220.24 1074.88 1219.94 1075 1219.62 1075Z" fill="#CBCBCB" />
            <g id="Flowers">
                <path class="flowers" d="M1394.46 1039.87C1416.01 1050.42 1425.6 1073.37 1425.6 1073.37C1425.6 1073.37 1400.23 1079.24 1378.67 1068.69C1357.12 1058.15 1347.53 1035.19 1347.53 1035.19C1347.53 1035.19 1372.9 1029.33 1394.46 1039.87Z" fill="#F1F1F1" />
                <path class="flowers" d="M1387.56 1047.47C1400.43 1066.92 1425.41 1074.09 1425.41 1074.09C1425.41 1074.09 1429.54 1049.72 1416.68 1030.27C1403.82 1010.82 1378.83 1003.64 1378.83 1003.64C1378.83 1003.64 1374.7 1028.01 1387.56 1047.47Z" fill="#F1F1F1" />
            </g>
            <path id="Vector_29" d="M1464.99 1074.56H1330.51C1330.2 1074.56 1329.9 1074.44 1329.68 1074.23C1329.46 1074.02 1329.33 1073.74 1329.33 1073.44C1329.33 1073.15 1329.46 1072.86 1329.68 1072.65C1329.9 1072.45 1330.2 1072.33 1330.51 1072.33H1464.99C1465.3 1072.33 1465.6 1072.45 1465.82 1072.65C1466.05 1072.86 1466.17 1073.15 1466.17 1073.44C1466.17 1073.74 1466.05 1074.02 1465.82 1074.23C1465.6 1074.44 1465.3 1074.56 1464.99 1074.56Z" fill="#CBCBCB" />
        </g>
    </g>
</svg>